# xmcd
# 
# Track frame offsets:
#     150
#     77991
#     99804
#     117695
#     135973
#     155766
#     172661
#     191183
#     214804
# 
# Disc length: 3601
# 
# Revision: 5
# Processed by: cddbd v1.5.2PL0 Copyright (c) Steve Scherf et al.
# Submitted via: BonkEnc v1.0.8
# 
DISCID=750e0f09
DTITLE=Marillion - B'sides Themselves
DYEAR=0
DGENRE=
TTITLE0=Grendel
TTITLE1=Charting The Single
TTITLE2=Market Square Heroes
TTITLE3=Three Boats Down From The Candy
TTITLE4=Cinderella Search
TTITLE5=Lady Nina
TTITLE6=Freaks
TTITLE7=Tux On
TTITLE8=Margaret
EXTD=
EXTT0=
EXTT1=
EXTT2=
EXTT3=
EXTT4=
EXTT5=
EXTT6=
EXTT7=
EXTT8=
PLAYORDER=
